<?xml version="1.0" encoding="utf-8"?>
<!-- Generator: Adobe Illustrator 16.0.0, SVG Export Plug-In . SVG Version: 6.00 Build 0)  -->
<!DOCTYPE svg PUBLIC "-//W3C//DTD SVG 1.1//EN" "http://www.w3.org/Graphics/SVG/1.1/DTD/svg11.dtd">
<svg version="1.1" id="Layer_1" xmlns="http://www.w3.org/2000/svg" xmlns:xlink="http://www.w3.org/1999/xlink" x="0px" y="0px"
	 width="100px" height="100px" viewBox="0 0 100 100" enable-background="new 0 0 100 100" xml:space="preserve">
<g>
	<g>
		<path fill-rule="evenodd" clip-rule="evenodd" fill="#FFFFFF" d="M56.75,17.826c3.506,0.918,6.534,2.526,9.282,4.685
			c6.489,5.1,9.998,11.794,10.559,20.002c0.299,4.381,0.409,8.776,0.638,13.163c0.166,3.185,0.565,6.335,1.644,9.362
			c1.03,2.897,2.62,5.448,5.074,7.315c2.432,1.851,2.751,5.605,1.556,7.919c-0.989,1.914-2.595,2.742-4.737,2.739
			c-13.806-0.017-27.61-0.009-41.416-0.009c-6.644,0-13.287,0.003-19.93,0.003c-2.617-0.003-4.247-1.046-5.114-3.267
			c-0.932-2.379-0.507-5.428,1.241-6.843c4.578-3.709,6.451-8.765,7.007-14.327c0.487-4.876,0.615-9.798,0.668-14.704
			c0.118-10.995,7.483-21.572,17.82-25.341c0.708-0.258,1.432-0.469,2.256-0.737c-2.017-2.414-2.853-5.085-2.241-8.133
			c0.448-2.233,1.599-4.036,3.386-5.419c3.561-2.757,8.62-2.458,11.893,0.617C59.138,7.487,60.797,12.822,56.75,17.826z
			 M49.91,79.312c6.713,0,13.425,0,20.139,0c3.599,0,7.198-0.015,10.797,0.008c0.757,0.006,1.284-0.243,1.51-0.974
			c0.288-0.929,0.217-2.443-0.845-3.281c-3.008-2.366-5.069-5.454-6.3-9.078c-1.375-4.047-1.636-8.252-1.738-12.483
			c-0.116-4.87-0.012-9.756-1.022-14.569c-2.488-11.852-14.038-19.857-25.92-17.949C35.276,22.793,27.019,32.548,26.916,43.98
			c-0.042,4.733-0.152,9.485-0.611,14.192c-0.651,6.66-2.687,12.791-8.137,17.255c-0.687,0.562-0.834,2.013-0.458,3.011
			c0.353,0.932,1.11,0.878,1.889,0.877C29.702,79.309,39.806,79.312,49.91,79.312z M49.996,16.986
			c3.045,0.009,5.482-2.396,5.51-5.437c0.028-3.064-2.462-5.575-5.512-5.559c-3.012,0.015-5.458,2.484-5.459,5.509
			C44.532,14.535,46.963,16.978,49.996,16.986z"/>
		<path fill-rule="evenodd" clip-rule="evenodd" fill="#FFFFFF" d="M37.379,86.674c1.105,0,2.142-0.063,3.161,0.043
			c0.277,0.029,0.616,0.537,0.731,0.889c2.08,6.332,9.857,8.477,14.838,4.066c1.271-1.124,2.203-2.491,2.639-4.136
			c0.188-0.712,0.521-0.93,1.227-0.88c0.885,0.061,1.776,0.014,2.671,0.014c-0.499,5.961-6.18,10.894-12.501,10.985
			C43.824,97.749,38.079,92.883,37.379,86.674z"/>
		<path fill-rule="evenodd" clip-rule="evenodd" fill="none" d="M49.91,79.312c-10.104,0-20.208-0.003-30.312,0.003
			c-0.778,0.001-1.536,0.055-1.889-0.877c-0.377-0.998-0.229-2.449,0.458-3.011c5.45-4.464,7.486-10.595,8.137-17.255
			c0.459-4.707,0.569-9.458,0.611-14.192c0.104-11.432,8.361-21.187,19.614-22.995c11.882-1.908,23.432,6.097,25.92,17.949
			c1.011,4.813,0.906,9.699,1.022,14.569c0.103,4.231,0.363,8.437,1.738,12.483c1.23,3.624,3.292,6.712,6.3,9.078
			c1.062,0.838,1.133,2.353,0.845,3.281c-0.226,0.73-0.753,0.979-1.51,0.974c-3.599-0.022-7.198-0.008-10.797-0.008
			C63.335,79.312,56.623,79.312,49.91,79.312z"/>
		<path fill-rule="evenodd" clip-rule="evenodd" fill="none" d="M49.996,16.986c-3.033-0.008-5.463-2.451-5.461-5.486
			c0.002-3.025,2.448-5.494,5.459-5.509c3.05-0.017,5.541,2.495,5.512,5.559C55.478,14.59,53.041,16.995,49.996,16.986z"/>
	</g>
	<circle fill-rule="evenodd" clip-rule="evenodd" fill="#0096FF" cx="68.091" cy="22.972" r="11.484"/>
</g>
</svg>
