<?xml version="1.0" encoding="utf-8"?>
<!-- Generator: Adobe Illustrator 16.0.0, SVG Export Plug-In . SVG Version: 6.00 Build 0)  -->
<!DOCTYPE svg PUBLIC "-//W3C//DTD SVG 1.1//EN" "http://www.w3.org/Graphics/SVG/1.1/DTD/svg11.dtd">
<svg version="1.1" id="Layer_1" xmlns="http://www.w3.org/2000/svg" xmlns:xlink="http://www.w3.org/1999/xlink" x="0px" y="0px"
	 width="300px" height="100px" viewBox="0 0 300 100" enable-background="new 0 0 300 100" xml:space="preserve">
<g>
	<g>
		<text transform="matrix(1 0 0 1 15.8716 71.8594)" fill="#FFFFFF" font-family="'CenturyGothic'" font-size="63.0313">SKYGYM</text>
		<g>
			<polygon fill-rule="evenodd" clip-rule="evenodd" fill="#A8D4ED" points="56.966,90.213 206.33,16.224 66.562,90.213 			"/>
			<path fill-rule="evenodd" clip-rule="evenodd" fill="#A8D4ED" d="M218.615,10.576c-0.699-1.527-4.301-0.835-6.817-0.193
				c-0.068,0.018-0.131,0.031-0.198,0.047l0.049,0.717c0.007,0.12-0.083,0.224-0.203,0.232c-0.119,0.009-0.223-0.082-0.232-0.202
				l-0.044-0.645c-0.176,0.04-0.346,0.076-0.513,0.111l0.052,0.748c0.009,0.121-0.082,0.225-0.203,0.233
				c-0.119,0.008-0.225-0.083-0.23-0.203l-0.05-0.691c-0.179,0.033-0.347,0.059-0.515,0.086l0.058,0.82
				c0.009,0.12-0.082,0.224-0.203,0.232c-0.119,0.008-0.225-0.083-0.232-0.203l-0.054-0.786c-0.178,0.024-0.352,0.047-0.519,0.064
				l0.067,0.938c0.007,0.12-0.083,0.224-0.205,0.232c-0.119,0.008-0.221-0.083-0.23-0.203l-0.064-0.926
				c-2.146,0.172-3.157-0.187-3.157-0.187s-0.288,3.062-5.452,3.12c0,0-0.336,0.571,0.421,1.895
				c0.072,0.126,0.146,0.268,0.221,0.416c6.58,0.898,16.633-4.274,16.633-4.274c-7.308,4.18-13.732,5.354-15.939,5.651
				c0.583,1.118,1.281,2.204,2.189,2.319C204.672,20.106,219.302,12.071,218.615,10.576z"/>
		</g>
		<g>
			<defs>
				<rect id="SVGID_1_" x="150.778" y="21.147" width="133.351" height="66.472"/>
			</defs>
			<clipPath id="SVGID_2_">
				<use xlink:href="#SVGID_1_"  overflow="visible"/>
			</clipPath>
			<g clip-path="url(#SVGID_2_)">
				<text transform="matrix(1 0 0 1 15.7402 71.8594)" fill="#FFFFFF" font-family="'CenturyGothic'" font-size="63.0313">SKYGYM</text>
			</g>
		</g>
	</g>
</g>
</svg>
